<svg xmlns="http://www.w3.org/2000/svg" viewBox="0 0 100 100" width="100" height="100" role="img" aria-label="Golden Ashoka Chakra">
  <defs>
    <!-- Golden Gradient -->
    <linearGradient id="goldGrad" x1="0" y1="0" x2="1" y2="1">
      <stop offset="0%" stop-color="#FFD700"/>
      <stop offset="50%" stop-color="#FFC107"/>
      <stop offset="100%" stop-color="#FFB300"/>
    </linearGradient>

    <!-- Hub shadow for depth -->
    <filter id="shadow" x="-50%" y="-50%" width="200%" height="200%">
      <feDropShadow dx="0" dy="1" stdDeviation="1.2" flood-color="#FFA000" flood-opacity="0.6"/>
    </filter>
  </defs>

  <!-- Rim -->
  <circle cx="50" cy="50" r="42" fill="none" stroke="url(#goldGrad)" stroke-width="4"/>

  <!-- Hub -->
  <circle cx="50" cy="50" r="6" fill="url(#goldGrad)" filter="url(#shadow)"/>

  <!-- Spokes (24) -->
  <g stroke="url(#goldGrad)" stroke-width="2" stroke-linecap="round">
    <line x1="50" y1="50" x2="50" y2="10"/>
    <line x1="50" y1="50" x2="60.353" y2="11.363"/>
    <line x1="50" y1="50" x2="70" y2="15.359"/>
    <line x1="50" y1="50" x2="78.284" y2="21.716"/>
    <line x1="50" y1="50" x2="84.641" y2="30"/>
    <line x1="50" y1="50" x2="88.637" y2="39.647"/>
    <line x1="50" y1="50" x2="90" y2="50"/>
    <line x1="50" y1="50" x2="88.637" y2="60.353"/>
    <line x1="50" y1="50" x2="84.641" y2="70"/>
    <line x1="50" y1="50" x2="78.284" y2="78.284"/>
    <line x1="50" y1="50" x2="70" y2="84.641"/>
    <line x1="50" y1="50" x2="60.353" y2="88.637"/>
    <line x1="50" y1="50" x2="50" y2="90"/>
    <line x1="50" y1="50" x2="39.647" y2="88.637"/>
    <line x1="50" y1="50" x2="30" y2="84.641"/>
    <line x1="50" y1="50" x2="21.716" y2="78.284"/>
    <line x1="50" y1="50" x2="15.359" y2="70"/>
    <line x1="50" y1="50" x2="11.363" y2="60.353"/>
    <line x1="50" y1="50" x2="10" y2="50"/>
    <line x1="50" y1="50" x2="11.363" y2="39.647"/>
    <line x1="50" y1="50" x2="15.359" y2="30"/>
    <line x1="50" y1="50" x2="21.716" y2="21.716"/>
    <line x1="50" y1="50" x2="30" y2="15.359"/>
    <line x1="50" y1="50" x2="39.647" y2="11.363"/>
  </g>

  <!-- Outer glow -->
  <circle cx="50" cy="50" r="42" fill="none" stroke="#FFD700" stroke-width="1" opacity="0.3"/>
</svg>


